<svg width="38" height="26" viewBox="0 0 38 26" fill="none" xmlns="http://www.w3.org/2000/svg">
    <path
        d="M5.91175 10H3.50375L4.24775 0.624H7.99975L8.70375 3.768L9.02375 5.36L9.32775 3.776L9.95175 0.624H13.2957L13.9837 10H11.4957L11.0878 4.488L10.9918 2.456L9.76775 9.064H7.67975L6.20775 2.456L6.15975 4.488L5.91175 10ZM16.4044 10V7.072L13.7484 0.624H16.7804L17.6044 3.04L18.1564 5.016L18.6124 3.04L19.2364 0.624H21.6204L19.2764 7.024V10H16.4044ZM24.5311 10.168C24.1205 10.168 23.7365 10.1307 23.3791 10.056C23.0271 9.98667 22.7311 9.89333 22.4911 9.776C22.2511 9.65867 22.0538 9.54667 21.8991 9.44C21.7498 9.33333 21.6245 9.22667 21.5231 9.12L21.7231 7.176C21.9418 7.46933 22.2351 7.72533 22.6031 7.944C22.9711 8.15733 23.3685 8.264 23.7951 8.264C24.2218 8.264 24.5285 8.21867 24.7151 8.128C24.9071 8.03733 25.0031 7.872 25.0031 7.632C25.0031 7.376 24.8938 7.15733 24.6751 6.976C24.4618 6.79467 24.0911 6.576 23.5631 6.32C23.3711 6.224 23.2085 6.13867 23.0751 6.064C22.9418 5.984 22.7631 5.856 22.5391 5.68C22.3205 5.49867 22.1418 5.312 22.0031 5.12C21.8645 4.92267 21.7418 4.672 21.6351 4.368C21.5285 4.05867 21.4751 3.728 21.4751 3.376C21.4751 1.472 22.5498 0.52 24.6991 0.52C25.0405 0.52 25.3605 0.557334 25.6591 0.632C25.9631 0.701333 26.2005 0.778666 26.3711 0.864C26.5418 0.949333 26.6965 1.05067 26.8351 1.168C26.9791 1.28 27.0698 1.36 27.1071 1.408C27.1445 1.45067 27.1711 1.48533 27.1871 1.512L26.7871 3.056C26.5791 2.81067 26.3178 2.62933 26.0031 2.512C25.6938 2.38933 25.3978 2.328 25.1151 2.328C24.4325 2.328 24.0911 2.54133 24.0911 2.968C24.0911 3.08 24.1125 3.18133 24.1551 3.272C24.1978 3.36267 24.2671 3.44533 24.3631 3.52C24.4591 3.59467 24.5471 3.65867 24.6271 3.712C24.7125 3.76533 24.8271 3.832 24.9711 3.912C25.1205 3.98667 25.2325 4.048 25.3071 4.096C26.0858 4.42667 26.6565 4.81867 27.0191 5.272C27.3871 5.72533 27.5711 6.27733 27.5711 6.928C27.5711 7.984 27.3098 8.78933 26.7871 9.344C26.2698 9.89333 25.5178 10.168 24.5311 10.168ZM29.9068 10V2.744H28.0348V0.624H34.4828V2.744H32.6108V10H29.9068ZM6.37787 24.336L6.30588 24.424C6.25254 24.4773 6.16188 24.5467 6.03387 24.632C5.91121 24.712 5.76187 24.7947 5.58588 24.88C5.41521 24.96 5.18587 25.0267 4.89787 25.08C4.60987 25.1387 4.30054 25.168 3.96987 25.168C3.27121 25.168 2.67387 25.0533 2.17787 24.824C1.68187 24.5893 1.29254 24.2507 1.00987 23.808C0.732542 23.36 0.532542 22.856 0.409875 22.296C0.287208 21.7307 0.225875 21.0773 0.225875 20.336C0.225875 19.5467 0.287208 18.8667 0.409875 18.296C0.532542 17.72 0.735208 17.216 1.01787 16.784C1.30587 16.3467 1.70054 16.0187 2.20187 15.8C2.70321 15.5813 3.31387 15.472 4.03387 15.472C4.36454 15.472 4.67387 15.5013 4.96187 15.56C5.25521 15.6187 5.48454 15.6853 5.64988 15.76C5.82054 15.8347 5.97254 15.92 6.10588 16.016C6.24454 16.112 6.32987 16.1787 6.36187 16.216C6.39921 16.2533 6.42587 16.2827 6.44188 16.304L6.32187 18.144H5.10587L4.68987 17.192C4.59387 17.1653 4.51388 17.152 4.44988 17.152C4.09254 17.152 3.81788 17.2347 3.62588 17.4C3.43387 17.56 3.28721 17.8773 3.18587 18.352C3.08454 18.8213 3.03388 19.4987 3.03388 20.384C3.03388 20.912 3.06588 21.3733 3.12987 21.768C3.19921 22.1627 3.28187 22.4667 3.37787 22.68C3.47387 22.888 3.58854 23.056 3.72187 23.184C3.85521 23.312 3.97521 23.3947 4.08187 23.432C4.18854 23.464 4.30321 23.48 4.42588 23.48C4.69787 23.48 4.98321 23.448 5.28187 23.384C5.58054 23.3147 5.82588 23.2107 6.01788 23.072L6.37787 24.336ZM9.73869 25H7.09069V15.624H9.73869V19.336H11.7947V15.624H14.4427V25H11.7947V21.176H9.73869V25ZM21.1767 25H15.5047V15.624H21.0568L20.8967 17.512L18.1527 17.432V19.24H20.3127V21.112L18.1527 20.952V23.08L21.1767 23V25ZM24.4472 25H21.9032V16.376L21.5112 15.624H24.4552L25.9272 18.664L27.3352 21.696L26.9432 18.136V15.624H29.4952V25H27.0552L25.1512 21.296L23.9752 18.976L24.4472 22.048V25ZM36.2871 24.152C35.6097 24.8293 34.8044 25.168 33.8711 25.168C33.2097 25.168 32.6364 25.0533 32.1511 24.824C31.6711 24.5947 31.2897 24.264 31.0071 23.832C30.7244 23.4 30.5164 22.9067 30.3831 22.352C30.2551 21.7973 30.1911 21.1653 30.1911 20.456C30.1911 19.928 30.2177 19.4533 30.2711 19.032C30.3297 18.6107 30.4231 18.208 30.5511 17.824C30.6791 17.44 30.8551 17.1093 31.0791 16.832C31.3031 16.5493 31.5777 16.304 31.9031 16.096C32.2284 15.888 32.6231 15.7333 33.0871 15.632C33.5511 15.5253 34.0791 15.472 34.6711 15.472C34.9377 15.472 35.1911 15.488 35.4311 15.52C35.6764 15.552 35.8844 15.592 36.0551 15.64C36.2257 15.6827 36.3857 15.7387 36.5351 15.808C36.6897 15.872 36.8097 15.9307 36.8951 15.984C36.9857 16.032 37.0684 16.0853 37.1431 16.144C37.2177 16.2027 37.2631 16.2427 37.2791 16.264C37.3004 16.2853 37.3164 16.3013 37.3271 16.312L37.2071 18.152H35.7511L35.2951 17.088C35.1777 17.024 34.9884 16.992 34.7271 16.992C34.5137 16.992 34.3377 17.0107 34.1991 17.048C34.0604 17.0853 33.9217 17.1653 33.7831 17.288C33.6497 17.4053 33.5431 17.5787 33.4631 17.808C33.3884 18.032 33.3271 18.3387 33.2791 18.728C33.2311 19.112 33.2071 19.5813 33.2071 20.136C33.2071 21.2933 33.2684 22.152 33.3911 22.712C33.5191 23.272 33.7724 23.552 34.1511 23.552C34.3377 23.552 34.4951 23.536 34.6231 23.504C34.7511 23.4667 34.8711 23.4027 34.9831 23.312C35.0951 23.216 35.1777 23.0773 35.2311 22.896C35.2844 22.7093 35.3111 22.472 35.3111 22.184V21.368L34.2551 21.128V19.496H37.8151L37.8071 25H36.3831L36.2871 24.152Z"
        fill="white" />
</svg>